# xmcd
#
# Track frame offsets:
#	150
#	16178
#	29130
#	47854
#	63738
#	83169
#	99429
#	112801
#	128177
#	147361
#	157890
#	170248
#	182897
#	198335
#	220285
#	233441
#	250710
#	267621
#	285813
#	299545
#	315360
#	331814
#
# Disc length: 4604 seconds
#
# Revision: 0
# Processed by: cddbd v1.5.2PL0 Copyright (c) Steve Scherf et al.
# Submitted via: audiograbber 1.83.01
#
DISCID=3e11fa16
DTITLE=KRUNOSLAV KICO SLABINAC - KRUNOSLAV KICO SLABINAC - ZLATNA KOLEKCIJA 1
DYEAR=1900
DGENRE=
TTITLE0=Plavusa
TTITLE1=Zbog tvoje ljubavi
TTITLE2=Vise neces biti moja
TTITLE3=Cvijet ceznje
TTITLE4=Zaboravi moja ljubavi
TTITLE5=U dugim nocima
TTITLE6=Tvoj djecak je tuzan
TTITLE7=Tri slatke rijeci
TTITLE8=Zbog jedne divne crne zene
TTITLE9=Tuzna je Anuska
TTITLE10=Zivot bez tebe
TTITLE11=Poljubi me za sretan put
TTITLE12=Balada o zeni i djetetu
TTITLE13=Da sam tvoje rijeci slusao, majko
TTITLE14=Budi to, sto jesi
TTITLE15=Pusti nocas svoje kose
TTITLE16=Dan koji se pamti
TTITLE17=Kako naci pravi put
TTITLE18=Serenada
TTITLE19=Ne mogu vise bez tebe
TTITLE20=Nije nam bilo sudjeno
TTITLE21=Nek' se toci staro vino
EXTD=
EXTT0=
EXTT1=
EXTT2=
EXTT3=
EXTT4=
EXTT5=
EXTT6=
EXTT7=
EXTT8=
EXTT9=
EXTT10=
EXTT11=
EXTT12=
EXTT13=
EXTT14=
EXTT15=
EXTT16=
EXTT17=
EXTT18=
EXTT19=
EXTT20=
EXTT21=
PLAYORDER=
